<svg width="1193" height="900" viewBox="0 0 1193 900" fill="none" xmlns="http://www.w3.org/2000/svg">
<path d="M318.591 872.333H307.925V899.687H311.832V891.404H318.591C325.705 891.404 330.003 887.807 330.003 881.87C330.003 875.929 325.705 872.333 318.591 872.333ZM318.476 888.005H311.832V875.735H318.476C323.476 875.735 326.094 877.96 326.094 881.87C326.094 885.776 323.476 888.005 318.476 888.005ZM382.474 899.687L375.989 890.504C379.818 889.136 382.006 886.088 382.006 881.87C382.006 875.929 377.707 872.333 370.594 872.333H359.928V899.687H363.834V891.365H370.594C371.181 891.365 371.767 891.323 372.315 891.286L378.214 899.687H382.474ZM370.479 888.042H363.834V875.735H370.479C375.478 875.735 378.096 877.96 378.096 881.87C378.096 885.776 375.478 888.042 370.479 888.042ZM424.86 900C433.185 900 439.359 894.059 439.359 886.012C439.359 877.96 433.185 872.021 424.86 872.021C416.462 872.021 410.286 877.999 410.286 886.012C410.286 894.021 416.462 900 424.86 900ZM424.86 896.521C418.726 896.521 414.195 892.067 414.195 886.012C414.195 879.953 418.726 875.499 424.86 875.499C430.919 875.499 435.45 879.953 435.45 886.012C435.45 892.067 430.919 896.521 424.86 896.521ZM488.82 875.735V872.333H469.517V899.687H473.423V888.629H487.14V885.269H473.423V875.735H488.82ZM522.416 896.288V887.456H536.132V884.137H522.416V875.735H537.813V872.333H518.509V899.687H538.358V896.288H522.416ZM576.842 900C584.07 900 587.431 896.406 587.431 892.231C587.431 882.196 570.863 886.382 570.863 879.687C570.863 877.297 572.856 875.342 577.505 875.342C579.928 875.342 582.626 876.047 585.008 877.571L586.299 874.444C584.032 872.881 580.709 872.021 577.505 872.021C570.315 872.021 567.034 875.617 567.034 879.844C567.034 890.011 583.601 885.795 583.601 892.464C583.601 894.849 581.57 896.677 576.842 896.677C573.325 896.677 569.847 895.356 567.815 893.519L566.367 896.562C568.558 898.593 572.662 900 576.842 900ZM625.286 900C632.514 900 635.875 896.406 635.875 892.231C635.875 882.196 619.308 886.382 619.308 879.687C619.308 877.297 621.301 875.342 625.949 875.342C628.373 875.342 631.07 876.047 633.452 877.571L634.743 874.444C632.477 872.881 629.154 872.021 625.949 872.021C618.759 872.021 615.478 875.617 615.478 879.844C615.478 890.011 632.045 885.795 632.045 892.464C632.045 894.849 630.015 896.677 625.286 896.677C621.769 896.677 618.29 895.356 616.26 893.519L614.812 896.562C617.002 898.593 621.105 900 625.286 900ZM665.76 899.687H669.665V872.333H665.76V899.687ZM714.399 900C722.724 900 728.896 894.059 728.896 886.012C728.896 877.96 722.724 872.021 714.399 872.021C705.999 872.021 699.824 877.999 699.824 886.012C699.824 894.021 705.999 900 714.399 900ZM714.399 896.521C708.264 896.521 703.733 892.067 703.733 886.012C703.733 879.953 708.264 875.499 714.399 875.499C720.456 875.499 724.988 879.953 724.988 886.012C724.988 892.067 720.456 896.521 714.399 896.521ZM778.671 872.333V892.732L762.259 872.333H759.055V899.687H762.96V879.29L779.372 899.687H782.577V872.333H778.671ZM835.399 899.687H839.502L827.077 872.333H823.209L810.821 899.687H814.846L817.855 892.847H832.392L835.399 899.687ZM819.223 889.723L825.123 876.321L831.024 889.723H819.223ZM867.747 899.687H886.463V896.288H871.654V872.333H867.747V899.687Z" fill="black"/>
<mask id="mask0_12_252" style="mask-type:luminance" maskUnits="userSpaceOnUse" x="620" y="153" width="89" height="89">
<path d="M683.821 153.546L620.048 217.325L644.68 241.957L708.453 178.178L683.821 153.546Z" fill="white"/>
</mask>
<g mask="url(#mask0_12_252)">
<path fill-rule="evenodd" clip-rule="evenodd" d="M683.821 153.546L620.048 217.325L644.68 241.957L708.453 178.178L683.821 153.546Z" fill="black"/>
</g>
<mask id="mask1_12_252" style="mask-type:luminance" maskUnits="userSpaceOnUse" x="491" y="282" width="89" height="89">
<path d="M554.908 282.463L491.135 346.238L515.764 370.871L579.539 307.095L554.908 282.463Z" fill="white"/>
</mask>
<g mask="url(#mask1_12_252)">
<path fill-rule="evenodd" clip-rule="evenodd" d="M554.908 282.463L491.135 346.238L515.764 370.871L579.539 307.095L554.908 282.463Z" fill="black"/>
</g>
<mask id="mask2_12_252" style="mask-type:luminance" maskUnits="userSpaceOnUse" x="579" y="113" width="89" height="89">
<path d="M604.171 201.448L667.944 137.672L643.315 113.041L579.539 176.815L604.171 201.448Z" fill="white"/>
</mask>
<g mask="url(#mask2_12_252)">
<path fill-rule="evenodd" clip-rule="evenodd" d="M604.171 201.448L667.944 137.672L643.315 113.041L579.539 176.815L604.171 201.448Z" fill="black"/>
</g>
<mask id="mask3_12_252" style="mask-type:luminance" maskUnits="userSpaceOnUse" x="450" y="241" width="90" height="90">
<path d="M539.029 266.589L514.397 241.957L450.621 305.73L475.254 330.359L539.029 266.589Z" fill="white"/>
</mask>
<g mask="url(#mask3_12_252)">
<path fill-rule="evenodd" clip-rule="evenodd" d="M539.029 266.589L514.397 241.957L450.621 305.73L475.254 330.359L539.029 266.589Z" fill="black"/>
</g>
<mask id="mask4_12_252" style="mask-type:luminance" maskUnits="userSpaceOnUse" x="450" y="153" width="90" height="89">
<path d="M539.029 217.325L475.254 153.546L450.621 178.178L514.397 241.957L539.029 217.325Z" fill="white"/>
</mask>
<g mask="url(#mask4_12_252)">
<path fill-rule="evenodd" clip-rule="evenodd" d="M539.029 217.325L475.254 153.546L450.621 178.178L514.397 241.957L539.029 217.325Z" fill="black"/>
</g>
<mask id="mask5_12_252" style="mask-type:luminance" maskUnits="userSpaceOnUse" x="491" y="113" width="89" height="89">
<path d="M554.908 201.448L579.539 176.815L515.764 113.041L491.135 137.672L554.908 201.448Z" fill="white"/>
</mask>
<g mask="url(#mask5_12_252)">
<path fill-rule="evenodd" clip-rule="evenodd" d="M554.908 201.448L579.539 176.815L515.764 113.041L491.135 137.672L554.908 201.448Z" fill="black"/>
</g>
<mask id="mask6_12_252" style="mask-type:luminance" maskUnits="userSpaceOnUse" x="620" y="241" width="89" height="90">
<path d="M620.048 266.589L683.821 330.359L708.453 305.73L644.68 241.957L620.048 266.589Z" fill="white"/>
</mask>
<g mask="url(#mask6_12_252)">
<path fill-rule="evenodd" clip-rule="evenodd" d="M620.048 266.589L683.821 330.359L708.453 305.73L644.68 241.957L620.048 266.589Z" fill="black"/>
</g>
<mask id="mask7_12_252" style="mask-type:luminance" maskUnits="userSpaceOnUse" x="579" y="282" width="89" height="89">
<path d="M667.944 346.238L604.171 282.463L579.539 307.095L643.315 370.871L667.944 346.238Z" fill="white"/>
</mask>
<g mask="url(#mask7_12_252)">
<path fill-rule="evenodd" clip-rule="evenodd" d="M667.944 346.238L604.171 282.463L579.539 307.095L643.315 370.871L667.944 346.238Z" fill="black"/>
</g>
<mask id="mask8_12_252" style="mask-type:luminance" maskUnits="userSpaceOnUse" x="491" y="370" width="177" height="114">
<path d="M667.944 395.5L643.316 370.871L579.539 434.646L515.764 370.871L491.135 395.5L579.539 483.905L667.944 395.5Z" fill="white"/>
</mask>
<g mask="url(#mask8_12_252)">
<path fill-rule="evenodd" clip-rule="evenodd" d="M667.944 395.5L643.316 370.871L579.539 434.646L515.764 370.871L491.135 395.5L579.539 483.905L667.944 395.5Z" fill="black"/>
</g>
<mask id="mask9_12_252" style="mask-type:luminance" maskUnits="userSpaceOnUse" x="337" y="153" width="114" height="178">
<path d="M450.622 178.178L425.993 153.546L337.585 241.957L425.993 330.359L450.622 305.73L386.847 241.957L450.622 178.178Z" fill="white"/>
</mask>
<g mask="url(#mask9_12_252)">
<path fill-rule="evenodd" clip-rule="evenodd" d="M450.622 178.178L425.993 153.546L337.585 241.957L425.993 330.359L450.622 305.73L386.847 241.957L450.622 178.178Z" fill="black"/>
</g>
<mask id="mask10_12_252" style="mask-type:luminance" maskUnits="userSpaceOnUse" x="708" y="153" width="114" height="178">
<path d="M733.086 153.546L708.453 178.178L772.232 241.957L708.453 305.73L733.086 330.359L821.491 241.957L733.086 153.546Z" fill="white"/>
</mask>
<g mask="url(#mask10_12_252)">
<path fill-rule="evenodd" clip-rule="evenodd" d="M733.086 153.546L708.453 178.178L772.232 241.957L708.453 305.73L733.086 330.359L821.491 241.957L733.086 153.546Z" fill="black"/>
</g>
<mask id="mask11_12_252" style="mask-type:luminance" maskUnits="userSpaceOnUse" x="491" y="-1" width="177" height="115">
<path d="M643.316 113.041L667.944 88.4078L579.539 -8.00434e-05L491.135 88.4078L515.764 113.041L579.539 49.2618L643.316 113.041Z" fill="white"/>
</mask>
<g mask="url(#mask11_12_252)">
<path fill-rule="evenodd" clip-rule="evenodd" d="M643.316 113.041L667.944 88.4078L579.539 -8.00434e-05L491.135 88.4078L515.764 113.041L579.539 49.2618L643.316 113.041Z" fill="black"/>
</g>
<mask id="mask12_12_252" style="mask-type:luminance" maskUnits="userSpaceOnUse" x="0" y="503" width="1193" height="331">
<path d="M101.176 754.18C101.176 767.415 103.15 777.288 107.1 783.799C111.05 790.309 117.078 794.845 125.189 797.406H51.2298C59.3412 794.845 65.3716 790.309 69.319 783.799C73.2683 777.288 75.2419 767.415 75.2419 754.18V710.637L38.1025 615.864C35.1144 608.181 32.3381 601.671 29.7775 596.334C27.2149 590.997 24.5469 586.674 21.7735 583.368C18.9962 580.06 15.9017 577.603 12.4862 576.002C9.07064 574.402 4.90956 573.495 0 573.281H74.6008C64.3571 573.708 58.4332 576.375 56.8327 581.285C55.2323 586.194 56.2457 593.453 59.873 603.057L99.8961 707.757L136.397 612.663C141.518 599.214 143.44 589.395 142.16 583.206C140.879 577.016 134.369 573.708 122.629 573.281H179.941C175.032 573.708 170.709 574.615 166.973 576.002C163.239 577.39 159.823 579.577 156.729 582.567C153.631 585.555 150.751 589.45 148.083 594.253C145.416 599.056 142.587 605.193 139.599 612.663L101.176 710.958V754.18ZM315.37 797.085V797.406H175.456C179.085 796.979 182.395 796.339 185.382 795.485C188.37 794.632 190.878 793.138 192.907 791.002C194.935 788.867 196.536 785.879 197.709 782.036C198.882 778.196 199.469 772.966 199.469 766.348V604.338C199.469 597.72 198.882 592.491 197.709 588.65C196.536 584.807 194.935 581.82 192.907 579.683C190.878 577.551 188.37 576.054 185.382 575.202C182.395 574.349 179.085 573.708 175.456 573.281H311.53L320.815 627.711C319.962 625.149 318.734 620.988 317.133 615.225C315.532 609.461 312.703 603.699 308.65 597.934C304.592 592.173 298.938 587.101 291.678 582.727C284.42 578.352 274.602 576.162 262.222 576.162H225.085V677.979H267.025C272.149 677.979 276.202 676.965 279.193 674.936C282.18 672.911 284.475 670.402 286.076 667.414C287.677 664.424 288.85 661.17 289.598 657.647C290.344 654.126 290.931 650.872 291.358 647.884V710.958C290.931 707.97 290.344 704.768 289.598 701.353C288.85 697.937 287.677 694.681 286.076 691.586C284.475 688.492 282.18 685.931 279.193 683.903C276.202 681.874 272.149 680.86 267.025 680.86H225.085V767.629C225.085 773.607 225.351 778.355 225.885 781.877C226.417 785.4 227.645 788.122 229.567 790.043C231.488 791.962 234.424 793.19 238.371 793.725C242.319 794.256 247.708 794.525 254.539 794.525H266.065C278.445 794.525 288.263 792.337 295.522 787.96C302.778 783.584 308.436 778.516 312.49 772.752C316.546 766.99 319.376 761.225 320.976 755.464C322.578 749.699 323.803 745.538 324.658 742.974L315.37 797.085ZM491.151 741.374C491.151 751.407 489.015 760.211 484.747 767.79C480.477 775.367 474.821 781.663 467.777 786.68C460.734 791.696 452.624 795.485 443.444 798.047C434.266 800.608 424.661 801.887 414.628 801.887C400.753 801.887 387.146 799.486 373.804 794.684C360.463 789.882 348.991 782.357 339.386 772.111L351.233 722.805C350.378 735.825 351.658 747.083 355.073 756.581C358.489 766.082 363.185 773.925 369.163 780.118C375.139 786.307 381.97 790.895 389.653 793.883C397.337 796.871 405.13 798.365 413.027 798.365C419.644 798.365 426.048 797.299 432.238 795.164C438.427 793.031 443.923 789.936 448.725 785.879C453.528 781.825 457.371 776.702 460.252 770.509C463.136 764.32 464.575 757.278 464.575 749.378C464.575 738.493 461.801 729.26 456.25 721.684C450.702 714.105 443.712 707.383 435.28 701.512C426.849 695.643 417.775 690.147 408.063 685.024C398.351 679.901 389.281 674.405 380.848 668.533C372.417 662.664 365.427 655.888 359.877 648.202C354.328 640.519 351.552 631.234 351.552 620.346C351.552 611.382 353.313 603.644 356.836 597.134C360.358 590.623 365.054 585.286 370.923 581.125C376.792 576.962 383.464 573.922 390.933 572C398.406 570.079 406.09 569.12 413.986 569.12C424.447 569.12 434.639 570.72 444.564 573.922C454.49 577.124 462.653 581.499 469.056 587.049L464.575 627.391C464.575 617.786 463.187 609.516 460.414 602.578C457.637 595.64 454.01 589.93 449.526 585.449C445.044 580.964 439.921 577.658 434.159 575.522C428.394 573.387 422.525 572.321 416.55 572.321C411.213 572.321 405.93 573.173 400.7 574.881C395.47 576.589 390.827 579.152 386.772 582.567C382.716 585.981 379.462 590.037 377.005 594.733C374.552 599.428 373.324 604.872 373.324 611.062C373.324 620.239 376.26 628.191 382.129 634.916C388 641.639 395.256 647.829 403.902 653.486C412.547 659.142 421.991 664.638 432.238 669.975C442.483 675.312 451.927 681.235 460.572 687.746C469.219 694.256 476.474 701.78 482.346 710.316C488.215 718.855 491.151 729.209 491.151 741.374ZM552.306 766.348C552.306 772.966 552.892 778.196 554.065 782.036C555.239 785.879 556.894 788.867 559.03 791.002C561.162 793.138 563.725 794.632 566.714 795.485C569.701 796.339 572.902 796.979 576.318 797.406H502.677C506.306 796.979 509.615 796.339 512.603 795.485C515.59 794.632 518.099 793.138 520.127 791.002C522.155 788.867 523.757 785.879 524.93 782.036C526.103 778.196 526.69 772.966 526.69 766.348V604.338C526.69 597.72 526.103 592.491 524.93 588.65C523.757 584.807 522.155 581.82 520.127 579.683C518.099 577.551 515.59 576.054 512.603 575.202C509.615 574.349 506.306 573.708 502.677 573.281H576.318C572.902 573.708 569.701 574.349 566.714 575.202C563.725 576.054 561.162 577.551 559.03 579.683C556.894 581.82 555.239 584.807 554.065 588.65C552.892 592.491 552.306 597.72 552.306 604.338V677.979H649.96V604.338C649.96 597.72 649.373 592.491 648.2 588.65C647.024 584.807 645.423 581.82 643.394 579.683C641.368 577.551 638.86 576.054 635.873 575.202C632.882 574.349 629.574 573.708 625.947 573.281H699.588C696.172 573.708 692.971 574.349 689.981 575.202C686.993 576.054 684.484 577.551 682.458 579.683C680.43 581.82 678.829 584.807 677.656 588.65C676.48 592.491 675.893 597.72 675.893 604.338V766.348C675.893 772.966 676.48 778.196 677.656 782.036C678.829 785.879 680.43 788.867 682.458 791.002C684.484 793.138 686.993 794.632 689.981 795.485C692.971 796.339 696.172 796.979 699.588 797.406H625.947C629.574 796.979 632.882 796.339 635.873 795.485C638.86 794.632 641.368 793.138 643.394 791.002C645.423 788.867 647.024 785.879 648.2 782.036C649.373 778.196 649.96 772.966 649.96 766.348V680.86H552.306V766.348ZM880.17 730.488C880.381 742.443 878.515 752.9 874.564 761.867C870.617 770.83 865.442 778.303 859.036 784.279C852.633 790.254 845.322 794.739 837.104 797.726C828.886 800.714 820.402 802.208 811.649 802.208C803.113 802.208 794.682 800.714 786.357 797.726C778.032 794.739 770.669 790.254 764.263 784.279C757.86 778.303 752.739 770.83 748.896 761.867C745.053 752.9 743.132 742.443 743.132 730.488V604.338C743.132 597.72 742.545 592.491 741.372 588.65C740.198 584.807 738.598 581.82 736.569 579.683C734.541 577.551 732.032 576.054 729.044 575.202C726.057 574.349 722.748 573.708 719.119 573.281H793.08C789.451 573.708 786.143 574.349 783.155 575.202C780.167 576.054 777.659 577.551 775.631 579.683C773.602 581.82 772.001 584.807 770.828 588.65C769.655 592.491 769.068 597.72 769.068 604.338V730.488C769.068 741.16 770.562 750.499 773.551 758.503C776.538 766.508 780.54 773.124 785.556 778.355C790.573 783.584 796.228 787.48 802.527 790.043C808.824 792.603 815.278 793.883 821.896 793.883C828.727 793.883 835.451 792.549 842.068 789.882C848.685 787.215 854.609 783.212 859.837 777.875C865.066 772.538 869.283 765.921 872.484 758.023C875.685 750.127 877.287 740.949 877.287 730.488V620.346C877.287 607.112 875.099 596.226 870.724 587.688C866.347 579.152 860.533 574.349 853.274 573.281H903.862C896.818 574.349 891.107 579.152 886.732 587.688C882.358 596.226 880.17 607.112 880.17 620.346V730.488ZM1192.66 827.183C1186.05 829.105 1178.95 830.65 1171.37 831.824C1163.8 833 1155.95 833.586 1147.84 833.586C1134.82 833.586 1121.53 831.824 1107.98 828.304C1094.42 824.781 1081.4 818.858 1068.92 810.533C1056.43 802.208 1044.96 791.11 1034.5 777.234C1024.04 763.36 1015.61 745.963 1009.2 725.045H938.763L932.679 744.258C928.837 756.636 926.649 766.296 926.114 773.232C925.584 780.169 926.277 785.344 928.198 788.76C930.117 792.175 933.159 794.363 937.32 795.325C941.484 796.284 946.235 796.979 951.569 797.406H883.372C889.989 796.764 895.485 795.752 899.86 794.363C904.237 792.976 908.077 790.361 911.387 786.52C914.695 782.677 917.844 777.182 920.833 770.03C923.821 762.881 927.236 753.328 931.079 741.374L985.19 568.799H986.79L1034.18 717.682C1041.22 739.88 1049.81 758.186 1059.95 772.593C1070.09 787 1080.98 798.421 1092.61 806.852C1104.24 815.283 1116.14 821.152 1128.31 824.461C1140.48 827.77 1151.9 829.422 1162.57 829.422C1168.12 829.422 1173.4 829.05 1178.42 828.304C1183.43 827.556 1188.07 826.649 1192.34 825.582L1192.66 827.183ZM939.724 722.164H1008.56L974.622 610.42L939.724 722.164ZM1030.98 515.009L982.306 558.552L981.026 557.272L1018.17 503.161L1030.98 515.009Z" fill="white"/>
</mask>
<g mask="url(#mask12_12_252)">
<path fill-rule="evenodd" clip-rule="evenodd" d="M101.176 754.18C101.176 767.415 103.15 777.288 107.1 783.799C111.05 790.309 117.078 794.845 125.189 797.406H51.2298C59.3412 794.845 65.3716 790.309 69.319 783.799C73.2683 777.288 75.2419 767.415 75.2419 754.18V710.637L38.1025 615.864C35.1144 608.181 32.3381 601.671 29.7775 596.334C27.2149 590.997 24.5469 586.674 21.7735 583.368C18.9962 580.06 15.9017 577.603 12.4862 576.002C9.07064 574.402 4.90956 573.495 0 573.281H74.6008C64.3571 573.708 58.4332 576.375 56.8327 581.285C55.2323 586.194 56.2457 593.453 59.873 603.057L99.8961 707.757L136.397 612.663C141.518 599.214 143.44 589.395 142.16 583.206C140.879 577.016 134.369 573.708 122.629 573.281H179.941C175.032 573.708 170.709 574.615 166.973 576.002C163.239 577.39 159.823 579.577 156.729 582.567C153.631 585.555 150.751 589.45 148.083 594.253C145.416 599.056 142.587 605.193 139.599 612.663L101.176 710.958V754.18ZM315.37 797.085V797.406H175.456C179.085 796.979 182.395 796.339 185.382 795.485C188.37 794.632 190.878 793.138 192.907 791.002C194.935 788.867 196.536 785.879 197.709 782.036C198.882 778.196 199.469 772.966 199.469 766.348V604.338C199.469 597.72 198.882 592.491 197.709 588.65C196.536 584.807 194.935 581.82 192.907 579.683C190.878 577.551 188.37 576.054 185.382 575.202C182.395 574.349 179.085 573.708 175.456 573.281H311.53L320.815 627.711C319.962 625.149 318.734 620.988 317.133 615.225C315.532 609.461 312.703 603.699 308.65 597.934C304.592 592.173 298.938 587.101 291.678 582.727C284.42 578.352 274.602 576.162 262.222 576.162H225.085V677.979H267.025C272.149 677.979 276.202 676.965 279.193 674.936C282.18 672.911 284.475 670.402 286.076 667.414C287.677 664.424 288.85 661.17 289.598 657.647C290.344 654.126 290.931 650.872 291.358 647.884V710.958C290.931 707.97 290.344 704.768 289.598 701.353C288.85 697.937 287.677 694.681 286.076 691.586C284.475 688.492 282.18 685.931 279.193 683.903C276.202 681.874 272.149 680.86 267.025 680.86H225.085V767.629C225.085 773.607 225.351 778.355 225.885 781.877C226.417 785.4 227.645 788.122 229.567 790.043C231.488 791.962 234.424 793.19 238.371 793.725C242.319 794.256 247.708 794.525 254.539 794.525H266.065C278.445 794.525 288.263 792.337 295.522 787.96C302.778 783.584 308.436 778.516 312.49 772.752C316.546 766.99 319.376 761.225 320.976 755.464C322.578 749.699 323.803 745.538 324.658 742.974L315.37 797.085ZM491.151 741.374C491.151 751.407 489.015 760.211 484.747 767.79C480.477 775.367 474.821 781.663 467.777 786.68C460.734 791.696 452.624 795.485 443.444 798.047C434.266 800.608 424.661 801.887 414.628 801.887C400.753 801.887 387.146 799.486 373.804 794.684C360.463 789.882 348.991 782.357 339.386 772.111L351.233 722.805C350.378 735.825 351.658 747.083 355.073 756.581C358.489 766.082 363.185 773.925 369.163 780.118C375.139 786.307 381.97 790.895 389.653 793.883C397.337 796.871 405.13 798.365 413.027 798.365C419.644 798.365 426.048 797.299 432.238 795.164C438.427 793.031 443.923 789.936 448.725 785.879C453.528 781.825 457.371 776.702 460.252 770.509C463.136 764.32 464.575 757.278 464.575 749.378C464.575 738.493 461.801 729.26 456.25 721.684C450.702 714.105 443.712 707.383 435.28 701.512C426.849 695.643 417.775 690.147 408.063 685.024C398.351 679.901 389.281 674.405 380.848 668.533C372.417 662.664 365.427 655.888 359.877 648.202C354.328 640.519 351.552 631.234 351.552 620.346C351.552 611.382 353.313 603.644 356.836 597.134C360.358 590.623 365.054 585.286 370.923 581.125C376.792 576.962 383.464 573.922 390.933 572C398.406 570.079 406.09 569.12 413.986 569.12C424.447 569.12 434.639 570.72 444.564 573.922C454.49 577.124 462.653 581.499 469.056 587.049L464.575 627.391C464.575 617.786 463.187 609.516 460.414 602.578C457.637 595.64 454.01 589.93 449.526 585.449C445.044 580.964 439.921 577.658 434.159 575.522C428.394 573.387 422.525 572.321 416.55 572.321C411.213 572.321 405.93 573.173 400.7 574.881C395.47 576.589 390.827 579.152 386.772 582.567C382.716 585.981 379.462 590.037 377.005 594.733C374.552 599.428 373.324 604.872 373.324 611.062C373.324 620.239 376.26 628.191 382.129 634.916C388 641.639 395.256 647.829 403.902 653.486C412.547 659.142 421.991 664.638 432.238 669.975C442.483 675.312 451.927 681.235 460.572 687.746C469.219 694.256 476.474 701.78 482.346 710.316C488.215 718.855 491.151 729.209 491.151 741.374ZM552.306 766.348C552.306 772.966 552.892 778.196 554.065 782.036C555.239 785.879 556.894 788.867 559.03 791.002C561.162 793.138 563.725 794.632 566.714 795.485C569.701 796.339 572.902 796.979 576.318 797.406H502.677C506.306 796.979 509.615 796.339 512.603 795.485C515.59 794.632 518.099 793.138 520.127 791.002C522.155 788.867 523.757 785.879 524.93 782.036C526.103 778.196 526.69 772.966 526.69 766.348V604.338C526.69 597.72 526.103 592.491 524.93 588.65C523.757 584.807 522.155 581.82 520.127 579.683C518.099 577.551 515.59 576.054 512.603 575.202C509.615 574.349 506.306 573.708 502.677 573.281H576.318C572.902 573.708 569.701 574.349 566.714 575.202C563.725 576.054 561.162 577.551 559.03 579.683C556.894 581.82 555.239 584.807 554.065 588.65C552.892 592.491 552.306 597.72 552.306 604.338V677.979H649.96V604.338C649.96 597.72 649.373 592.491 648.2 588.65C647.024 584.807 645.423 581.82 643.394 579.683C641.368 577.551 638.86 576.054 635.873 575.202C632.882 574.349 629.574 573.708 625.947 573.281H699.588C696.172 573.708 692.971 574.349 689.981 575.202C686.993 576.054 684.484 577.551 682.458 579.683C680.43 581.82 678.829 584.807 677.656 588.65C676.48 592.491 675.893 597.72 675.893 604.338V766.348C675.893 772.966 676.48 778.196 677.656 782.036C678.829 785.879 680.43 788.867 682.458 791.002C684.484 793.138 686.993 794.632 689.981 795.485C692.971 796.339 696.172 796.979 699.588 797.406H625.947C629.574 796.979 632.882 796.339 635.873 795.485C638.86 794.632 641.368 793.138 643.394 791.002C645.423 788.867 647.024 785.879 648.2 782.036C649.373 778.196 649.96 772.966 649.96 766.348V680.86H552.306V766.348ZM880.17 730.488C880.381 742.443 878.515 752.9 874.564 761.867C870.617 770.83 865.442 778.303 859.036 784.279C852.633 790.254 845.322 794.739 837.104 797.726C828.886 800.714 820.402 802.208 811.649 802.208C803.113 802.208 794.682 800.714 786.357 797.726C778.032 794.739 770.669 790.254 764.263 784.279C757.86 778.303 752.739 770.83 748.896 761.867C745.053 752.9 743.132 742.443 743.132 730.488V604.338C743.132 597.72 742.545 592.491 741.372 588.65C740.198 584.807 738.598 581.82 736.569 579.683C734.541 577.551 732.032 576.054 729.044 575.202C726.057 574.349 722.748 573.708 719.119 573.281H793.08C789.451 573.708 786.143 574.349 783.155 575.202C780.167 576.054 777.659 577.551 775.631 579.683C773.602 581.82 772.001 584.807 770.828 588.65C769.655 592.491 769.068 597.72 769.068 604.338V730.488C769.068 741.16 770.562 750.499 773.551 758.503C776.538 766.508 780.54 773.124 785.556 778.355C790.573 783.584 796.228 787.48 802.527 790.043C808.824 792.603 815.278 793.883 821.896 793.883C828.727 793.883 835.451 792.549 842.068 789.882C848.685 787.215 854.609 783.212 859.837 777.875C865.066 772.538 869.283 765.921 872.484 758.023C875.685 750.127 877.287 740.949 877.287 730.488V620.346C877.287 607.112 875.099 596.226 870.724 587.688C866.347 579.152 860.533 574.349 853.274 573.281H903.862C896.818 574.349 891.107 579.152 886.732 587.688C882.358 596.226 880.17 607.112 880.17 620.346V730.488ZM1192.66 827.183C1186.05 829.105 1178.95 830.65 1171.37 831.824C1163.8 833 1155.95 833.586 1147.84 833.586C1134.82 833.586 1121.53 831.824 1107.98 828.304C1094.42 824.781 1081.4 818.858 1068.92 810.533C1056.43 802.208 1044.96 791.11 1034.5 777.234C1024.04 763.36 1015.61 745.963 1009.2 725.045H938.763L932.679 744.258C928.837 756.636 926.649 766.296 926.114 773.232C925.584 780.169 926.277 785.344 928.198 788.76C930.117 792.175 933.159 794.363 937.32 795.325C941.484 796.284 946.235 796.979 951.569 797.406H883.372C889.989 796.764 895.485 795.752 899.86 794.363C904.237 792.976 908.077 790.361 911.387 786.52C914.695 782.677 917.844 777.182 920.833 770.03C923.821 762.881 927.236 753.328 931.079 741.374L985.19 568.799H986.79L1034.18 717.682C1041.22 739.88 1049.81 758.186 1059.95 772.593C1070.09 787 1080.98 798.421 1092.61 806.852C1104.24 815.283 1116.14 821.152 1128.31 824.461C1140.48 827.77 1151.9 829.422 1162.57 829.422C1168.12 829.422 1173.4 829.05 1178.42 828.304C1183.43 827.556 1188.07 826.649 1192.34 825.582L1192.66 827.183ZM939.724 722.164H1008.56L974.622 610.42L939.724 722.164ZM1030.98 515.009L982.306 558.552L981.026 557.272L1018.17 503.161L1030.98 515.009Z" fill="black"/>
</g>
</svg>
